<svg width="53" height="53" viewBox="0 0 53 53" fill="#0AD4A5" xmlns="http://www.w3.org/2000/svg">
<path fill-rule="evenodd" clip-rule="evenodd" d="M27.3637 0.0496722C24.1628 0.414485 21.7883 1.16867 19.5164 2.54201C15.499 4.9704 12.4581 9.03071 11.3731 13.415L11.1137 14.4632L10.0659 14.5245C5.40104 14.7975 1.50078 17.9938 0.294841 22.5322C0.0562442 23.4303 0.0211077 23.7657 0.0189311 25.1677C0.0168581 26.5769 0.0497144 26.8976 0.286549 27.78C1.12392 30.8993 3.14784 33.3689 6.00623 34.7594C7.0679 35.2758 8.93003 35.7966 9.34379 35.6927C9.79331 35.5799 10.1064 35.1777 10.1064 34.713C10.1064 34.0464 9.81383 33.8055 8.65536 33.5186C7.4148 33.2113 6.68088 32.8856 5.69716 32.2055C2.29969 29.857 1.08598 25.3334 2.84592 21.5781C3.67976 19.799 4.98158 18.4362 6.6901 17.5538C8.14552 16.802 8.85291 16.6402 10.7482 16.6255C12.7428 16.61 12.8031 16.5763 13.0606 15.3334C13.7868 11.8274 15.0275 9.35583 17.2372 7.01294C20.6955 3.34626 25.8933 1.51203 30.8353 2.2143C34.4076 2.72193 37.3327 4.18947 39.9092 6.7669C41.5744 8.43271 42.6691 10.085 43.4825 12.1608C43.6165 12.5029 43.7868 12.8782 43.8609 12.995C43.935 13.1117 44.4745 13.4469 45.0598 13.7398C47.8006 15.1113 49.8214 17.5978 50.5987 20.5557C50.8355 21.4568 50.8714 21.8018 50.8738 23.1985C50.8763 24.615 50.8446 24.9215 50.6059 25.7907C49.5689 29.567 46.8139 32.3526 43.0766 33.4041C42.4431 33.5823 42.1179 33.733 41.9521 33.9254C41.5911 34.3442 41.6741 35.0531 42.1245 35.3988C42.7614 35.8878 45.5521 34.9436 47.5969 33.5475C51.0341 31.2006 53.2091 26.7947 52.9841 22.6347C52.7391 18.1066 50.2989 14.2169 46.3541 12.0667L45.49 11.5957L45.1387 10.7446C44.4195 9.00304 42.9901 6.895 41.4956 5.3719C38.6449 2.46697 35.0087 0.670373 30.9084 0.141083C29.8036 -0.00162961 28.1804 -0.0433966 27.3637 0.0496722ZM16.9757 17.3469C15.59 17.7201 14.2367 18.7812 13.6469 19.9568C13.2893 20.6697 13.0079 21.7385 13.0101 22.376C13.0142 23.5911 13.6191 25.0467 14.4968 25.9528L15.0414 26.515L14.4835 27.091C13.7727 27.8248 13.2298 28.9415 13.0807 29.9768C12.8665 31.4639 13.4158 33.128 14.4854 34.2323L15.0414 34.8062L14.4835 35.3822C13.6033 36.2909 13.0086 37.7438 13.0086 38.9853C13.0086 39.5888 13.2988 40.6703 13.6469 41.3645C14.0354 42.1388 15.0122 43.1108 15.803 43.5099C16.9492 44.0885 17.3403 44.1306 21.5854 44.1323L25.4463 44.1338L25.4428 45.5589L25.4393 46.9839L24.9022 47.2948C22.7698 48.5291 22.9578 51.7329 25.2235 52.7702C25.8929 53.0766 27.0726 53.0766 27.7419 52.7702C30.0077 51.7329 30.1957 48.5291 28.0633 47.2948L27.5262 46.9839L27.5226 45.5589L27.5192 44.1338H31.4361C35.6931 44.1338 36.0015 44.1014 37.1559 43.5325C37.8882 43.1717 38.9969 42.0654 39.3576 41.3355C40.3925 39.2418 40.04 36.9465 38.4314 35.3042L37.9548 34.8176L38.5361 34.1897C40.4591 32.1128 40.4142 29.0372 38.4314 27.013L37.9548 26.5264L38.5361 25.8984C40.0599 24.2527 40.3686 22.031 39.3576 19.9857C38.9969 19.2558 37.8882 18.1495 37.1559 17.7887C35.9045 17.172 36.1709 17.1868 26.4351 17.1942C19.1107 17.1998 17.4204 17.2271 16.9757 17.3469ZM36.1452 19.6033C36.8573 19.953 37.3936 20.5484 37.6758 21.3027C38.2284 22.7795 37.5662 24.4377 36.1452 25.1355L35.5519 25.4268L26.7937 25.4591C20.6568 25.4817 17.8761 25.457 17.5027 25.3765C15.9403 25.0395 14.8414 23.3338 15.1778 21.7681C15.4118 20.6793 16.2645 19.7334 17.3098 19.4029C17.633 19.3007 19.6921 19.2762 26.6382 19.2919L35.5519 19.312L36.1452 19.6033ZM18.1532 21.5026C17.582 22.0738 17.9112 23.0752 18.7236 23.2377C19.3428 23.3615 26.8204 23.2991 27.2082 23.1668C27.4503 23.0841 27.6364 22.9206 27.7685 22.6741C28.0041 22.2345 27.9404 21.8484 27.5716 21.4795L27.3213 21.2294H22.8739H18.4265L18.1532 21.5026ZM29.8951 21.5323C29.6708 21.7566 29.5922 21.9336 29.5922 22.2139C29.5922 22.7399 30.0503 23.1985 30.5757 23.1985C31.0901 23.1985 31.3438 23.0413 31.5235 22.6113C31.9553 21.578 30.6887 20.7387 29.8951 21.5323ZM33.5228 21.5323C33.1148 21.9402 33.1094 22.4498 33.5084 22.8963C34.0153 23.4637 34.9461 23.2613 35.187 22.5313C35.5182 21.5277 34.2742 20.7809 33.5228 21.5323ZM36.1452 27.8946C37.5662 28.5923 38.2284 30.2505 37.6758 31.7273C37.3936 32.4816 36.8573 33.077 36.1452 33.4267L35.5519 33.718L26.7937 33.7503C20.6568 33.7729 17.8761 33.7483 17.5027 33.6677C15.9403 33.3307 14.8414 31.625 15.1778 30.0593C15.3307 29.3483 15.8738 28.5061 16.4265 28.1231C17.2576 27.5472 16.9905 27.5614 26.6382 27.5831L35.5519 27.6032L36.1452 27.8946ZM18.1532 29.7938C17.582 30.365 17.9112 31.3664 18.7236 31.5289C19.3428 31.6528 26.8204 31.5903 27.2082 31.458C27.4503 31.3753 27.6364 31.2118 27.7685 30.9653C28.0041 30.5257 27.9404 30.1396 27.5716 29.7708L27.3213 29.5206H22.8739H18.4265L18.1532 29.7938ZM29.8951 29.8235C29.6708 30.0478 29.5922 30.2248 29.5922 30.5051C29.5922 31.0311 30.0503 31.4897 30.5757 31.4897C31.0901 31.4897 31.3438 31.3325 31.5235 30.9025C31.9553 29.8692 30.6887 29.0299 29.8951 29.8235ZM33.5228 29.8235C33.1257 30.2206 33.1128 30.7248 33.4882 31.1708C33.9714 31.7451 34.9487 31.5447 35.187 30.8225C35.5182 29.8189 34.2742 29.0721 33.5228 29.8235ZM36.1452 36.1858C37.5662 36.8835 38.2284 38.5417 37.6758 40.0185C37.3936 40.7728 36.8573 41.3682 36.1452 41.7179L35.5519 42.0092L26.7937 42.0378C20.9301 42.0569 17.8641 42.0301 17.5172 41.9569C15.9546 41.6267 14.8416 39.9142 15.1767 38.3559C15.3307 37.6393 15.8719 36.7986 16.4265 36.4143C17.2576 35.8384 16.9905 35.8526 26.6382 35.8743L35.5519 35.8944L36.1452 36.1858ZM18.1532 38.085C17.582 38.6562 17.9112 39.6576 18.7236 39.8201C19.3428 39.944 26.8204 39.8815 27.2082 39.7492C27.4503 39.6665 27.6364 39.503 27.7685 39.2565C28.0041 38.8169 27.9404 38.4308 27.5716 38.062L27.3213 37.8118H22.8739H18.4265L18.1532 38.085ZM29.8951 38.1147C29.6708 38.339 29.5922 38.516 29.5922 38.7964C29.5922 39.887 31.1964 40.1617 31.5552 39.1325C31.9087 38.1186 30.6581 37.3518 29.8951 38.1147ZM33.5228 38.1147C33.1257 38.5118 33.1128 39.016 33.4882 39.462C33.9714 40.0363 34.9487 39.8359 35.187 39.1137C35.5182 38.1102 34.2742 37.3633 33.5228 38.1147ZM0.622678 48.9992C-0.0371423 49.2693 -0.212514 50.1342 0.290488 50.6372L0.575518 50.9223L10.1572 50.9497L19.7388 50.9773L20.0767 50.6754C20.3568 50.4252 20.4147 50.2988 20.4147 49.9377C20.4147 49.577 20.3566 49.4501 20.0785 49.2016L19.7423 48.9013L10.2862 48.9078C5.08522 48.9114 0.73669 48.9526 0.622678 48.9992ZM27.2059 49.2665C27.8148 49.875 27.3515 50.9176 26.4722 50.9176C26.1203 50.9176 25.9932 50.8574 25.7353 50.5688C25.4757 50.2783 25.4335 50.1599 25.4824 49.8588C25.6273 48.9657 26.5781 48.6391 27.2059 49.2665ZM33.0644 48.9984C32.737 49.1336 32.4905 49.4664 32.4268 49.8588C32.3779 50.1603 32.4201 50.2783 32.6818 50.5712L32.9955 50.9223H42.6927H52.3899L52.675 50.6372C53.0727 50.2395 53.0727 49.6359 52.675 49.2381L52.3899 48.9531L42.8307 48.9329C37.5732 48.9218 33.1784 48.9513 33.0644 48.9984Z" fill="#0AD4A5"/>
</svg>
