<svg width="1392" height="1323" viewBox="0 0 1392 1323" fill="none" xmlns="http://www.w3.org/2000/svg">
<path d="M232.233 670.798C423.896 631.551 998.289 734.094 1189.63 456.448C1380.97 178.801 877.604 19.5135 711.698 313.843C65.8032 1459.71 40.5697 710.045 232.233 670.798Z" stroke="#09AEAE" stroke-width="0.3" stroke-linecap="round" stroke-linejoin="round" stroke-dasharray="6 6"/>
<path d="M234.828 681.585C426.491 642.338 1000.89 744.881 1192.23 467.235C1383.57 189.588 880.199 30.3006 714.294 324.63C68.3989 1470.5 43.1654 720.833 234.828 681.585Z" stroke="#09AEAE" stroke-width="0.3" stroke-linecap="round" stroke-linejoin="round" stroke-dasharray="6 6"/>
<path d="M237.426 692.38C429.089 653.133 1003.48 755.676 1194.82 478.03C1386.16 200.383 882.797 41.0955 716.891 335.425C70.9966 1481.29 45.7631 731.628 237.426 692.38Z" stroke="#09AEAE" stroke-width="0.3" stroke-linecap="round" stroke-linejoin="round" stroke-dasharray="6 6"/>
<path d="M240.014 703.172C431.677 663.925 1006.07 766.468 1197.41 488.822C1388.75 211.175 885.385 51.8875 719.479 346.217C73.5844 1492.08 48.351 742.419 240.014 703.172Z" stroke="#09AEAE" stroke-width="0.3" stroke-linecap="round" stroke-linejoin="round" stroke-dasharray="6 6"/>
<path d="M242.61 713.965C434.272 674.718 1008.67 777.261 1200.01 499.615C1391.35 221.968 887.981 62.6805 722.075 357.01C76.1801 1502.88 50.9467 753.212 242.61 713.965Z" stroke="#09AEAE" stroke-width="0.3" stroke-linecap="round" stroke-linejoin="round" stroke-dasharray="6 6"/>
<path d="M245.203 724.757C436.866 685.51 1011.26 788.053 1202.6 510.407C1393.94 232.76 890.574 73.4724 724.669 367.802C78.7739 1513.67 53.5404 764.004 245.203 724.757Z" stroke="#09AEAE" stroke-width="0.3" stroke-linecap="round" stroke-linejoin="round" stroke-dasharray="6 6"/>
<path d="M247.791 735.552C439.454 696.305 1013.85 798.848 1205.19 521.202C1396.53 243.555 893.162 84.2674 727.257 378.596C81.3618 1524.46 56.1283 774.799 247.791 735.552Z" stroke="#09AEAE" stroke-width="0.3" stroke-linecap="round" stroke-linejoin="round" stroke-dasharray="6 6"/>
<path d="M250.385 746.345C442.048 707.098 1016.44 809.641 1207.78 531.995C1399.12 254.348 895.756 95.0603 729.85 389.389C83.9555 1535.26 58.7221 785.592 250.385 746.345Z" stroke="#09AEAE" stroke-width="0.3" stroke-linecap="round" stroke-linejoin="round" stroke-dasharray="6 6"/>
<path d="M252.977 757.136C444.64 717.889 1019.03 820.432 1210.37 542.786C1401.72 265.139 898.348 105.851 732.442 400.18C86.5473 1546.05 61.3139 796.383 252.977 757.136Z" stroke="#09AEAE" stroke-width="0.3" stroke-linecap="round" stroke-linejoin="round" stroke-dasharray="6 6"/>
<path d="M255.572 767.93C447.235 728.683 1021.63 831.226 1212.97 553.58C1404.31 275.933 900.943 116.645 735.038 410.974C89.143 1556.84 63.9096 807.177 255.572 767.93Z" stroke="#09AEAE" stroke-width="0.3" stroke-linecap="round" stroke-linejoin="round" stroke-dasharray="6 6"/>
<path d="M258.16 778.726C449.823 739.479 1024.22 842.022 1215.56 564.376C1406.9 286.729 903.531 127.441 737.626 421.77C91.7309 1567.64 66.4975 817.973 258.16 778.726Z" stroke="#09AEAE" stroke-width="0.3" stroke-linecap="round" stroke-linejoin="round" stroke-dasharray="6 6"/>
<path d="M260.754 789.52C452.417 750.273 1026.81 852.816 1218.15 575.169C1409.49 297.523 906.125 138.235 740.22 432.564C94.3247 1578.43 69.0912 828.767 260.754 789.52Z" stroke="#09AEAE" stroke-width="0.3" stroke-linecap="round" stroke-linejoin="round" stroke-dasharray="6 6"/>
<path d="M263.35 800.308C455.013 761.061 1029.41 863.604 1220.75 585.958C1412.09 308.311 908.721 149.023 742.815 443.352C96.9204 1589.22 71.6869 839.555 263.35 800.308Z" stroke="#09AEAE" stroke-width="0.3" stroke-linecap="round" stroke-linejoin="round" stroke-dasharray="6 6"/>
<path d="M265.936 811.105C457.599 771.857 1031.99 874.401 1223.33 596.754C1414.67 319.108 911.307 159.82 745.401 454.149C99.5063 1600.02 74.2729 850.352 265.936 811.105Z" stroke="#09AEAE" stroke-width="0.3" stroke-linecap="round" stroke-linejoin="round" stroke-dasharray="6 6"/>
</svg>
