<svg width="100" height="100" viewBox="0 0 612 1561" fill="none" xmlns="http://www.w3.org/2000/svg">
<g filter="url(#filter0_f_2_121)">
<path d="M40.9197 1190.28C18.7219 1136.24 2.80459 1044.95 -17.4402 940.777C-112.931 898.001 -233.219 851.206 -383.257 800.562C-691.746 696.434 -631.482 191.232 -334.212 322.442C-129.065 412.989 -62.5227 708.81 -17.4402 940.777C651.429 1240.41 103.601 1342.89 40.9197 1190.28Z" fill="url(#paint0_linear_2_121)"/>
<path d="M40.9197 1190.28C18.7219 1136.24 2.80459 1044.95 -17.4402 940.777C-112.931 898.001 -233.219 851.206 -383.257 800.562C-691.746 696.434 -631.482 191.232 -334.212 322.442C-129.065 412.989 -62.5227 708.81 -17.4402 940.777C651.429 1240.41 103.601 1342.89 40.9197 1190.28Z" stroke="#09AEAE" stroke-width="0.3" stroke-linecap="round" stroke-linejoin="round" stroke-dasharray="6 6"/>
</g>
<defs>
<filter id="filter0_f_2_121" x="-887.881" y="0.693115" width="1499.5" height="1559.84" filterUnits="userSpaceOnUse" color-interpolation-filters="sRGB">
<feFlood flood-opacity="0" result="BackgroundImageFix"/>
<feBlend mode="normal" in="SourceGraphic" in2="BackgroundImageFix" result="shape"/>
<feGaussianBlur stdDeviation="150" result="effect1_foregroundBlur_2_121"/>
</filter>
<linearGradient id="paint0_linear_2_121" x1="-442.366" y1="-19.6332" x2="28.074" y2="1347.41" gradientUnits="userSpaceOnUse">
<stop offset="0.270751" stop-color="#D1C0FF"/>
<stop offset="0.567708" stop-color="#52D5AD"/>
<stop offset="0.859375" stop-color="#B5FFE9"/>
</linearGradient>
</defs>
</svg>
