<svg width="785" height="1512" viewBox="0 0 785 1512" fill="none" xmlns="http://www.w3.org/2000/svg">
<g filter="url(#filter0_f_2_61)">
<path d="M368.513 941.019C422.168 917.896 513.172 900.413 616.977 878.381C658.106 782.17 702.827 661.095 750.886 510.209C849.699 199.976 1355.86 251.552 1229.78 551.032C1142.77 757.704 848.136 829.32 616.977 878.381C328.883 1552.3 217.006 1006.31 368.513 941.019Z" fill="url(#paint0_linear_2_61)"/>
<path d="M368.513 941.019C422.168 917.896 513.172 900.413 616.977 878.381C658.106 782.17 702.827 661.095 750.886 510.209C849.699 199.976 1355.86 251.552 1229.78 551.032C1142.77 757.704 848.136 829.32 616.977 878.381C328.883 1552.3 217.006 1006.31 368.513 941.019Z" stroke="#09AEAE" stroke-width="0.3" stroke-linecap="round" stroke-linejoin="round" stroke-dasharray="6 6"/>
</g>
<defs>
<filter id="filter0_f_2_61" x="0.76123" y="0.521545" width="1549.2" height="1511.19" filterUnits="userSpaceOnUse" color-interpolation-filters="sRGB">
<feFlood flood-opacity="0" result="BackgroundImageFix"/>
<feBlend mode="normal" in="SourceGraphic" in2="BackgroundImageFix" result="shape"/>
<feGaussianBlur stdDeviation="150" result="effect1_foregroundBlur_2_61"/>
</filter>
<linearGradient id="paint0_linear_2_61" x1="1569.94" y1="437.016" x2="211.188" y2="930.875" gradientUnits="userSpaceOnUse">
<stop offset="0.270751" stop-color="#D1C0FF"/>
<stop offset="0.567708" stop-color="#52D5AD"/>
<stop offset="0.859375" stop-color="#B5FFE9"/>
</linearGradient>
</defs>
</svg>
