<svg width="1301" height="848" viewBox="0 0 1301 848" fill="none" xmlns="http://www.w3.org/2000/svg">
<g filter="url(#filter0_f_2_63)">
<path d="M421.142 327.122C452.188 340.557 495.683 371.972 546.177 406.977C603.055 386.118 671.837 356.903 754.51 317.261C924.491 235.752 1103.69 469.56 927.413 535.307C805.765 580.678 658.619 484.928 546.177 406.977C147.772 553.082 333.478 289.186 421.142 327.122Z" fill="url(#paint0_linear_2_63)"/>
<path d="M421.142 327.122C452.188 340.557 495.683 371.972 546.177 406.977C603.055 386.118 671.837 356.903 754.51 317.261C924.491 235.752 1103.69 469.56 927.413 535.307C805.765 580.678 658.619 484.928 546.177 406.977C147.772 553.082 333.478 289.186 421.142 327.122Z" stroke="#09AEAE" stroke-width="0.3" stroke-linecap="round" stroke-linejoin="round" stroke-dasharray="6 6"/>
</g>
<defs>
<filter id="filter0_f_2_63" x="0.544434" y="0.0715332" width="1299.59" height="847.096" filterUnits="userSpaceOnUse" color-interpolation-filters="sRGB">
<feFlood flood-opacity="0" result="BackgroundImageFix"/>
<feBlend mode="normal" in="SourceGraphic" in2="BackgroundImageFix" result="shape"/>
<feGaussianBlur stdDeviation="150" result="effect1_foregroundBlur_2_63"/>
</filter>
<linearGradient id="paint0_linear_2_63" x1="1110.51" y1="633.416" x2="362.964" y2="256.787" gradientUnits="userSpaceOnUse">
<stop offset="0.270751" stop-color="#D1C0FF"/>
<stop offset="0.567708" stop-color="#52D5AD"/>
<stop offset="0.859375" stop-color="#B5FFE9"/>
</linearGradient>
</defs>
</svg>
