<svg width="55" height="51" viewBox="0 0 55 51" fill="none" xmlns="http://www.w3.org/2000/svg">
<path fill-rule="evenodd" clip-rule="evenodd" d="M4.32803 0.106948C2.53462 0.526078 0.938166 2.2905 0.505866 4.33128C0.275798 5.41788 0.273268 35.4286 0.50323 36.5045C0.956301 38.6243 2.56372 40.3568 4.43821 40.7455C5.13411 40.8899 11.609 40.9037 11.986 40.7616C12.6277 40.5198 12.8163 39.5868 12.3224 39.0969L12.0466 38.8233L8.38479 38.771C4.86218 38.7207 4.70645 38.71 4.28775 38.488C3.69719 38.1748 3.04083 37.4102 2.7495 36.696L2.50878 36.1057V26.0717V16.0377L25.4154 16.0113L48.322 15.9849V21.3158V26.6466L47.9266 26.6489C47.4518 26.6516 46.6871 26.9777 46.3037 27.3409L46.0251 27.6047L45.302 27.2941C44.9043 27.1233 44.4763 26.9528 44.351 26.9154C44.1699 26.8613 44.1078 26.7356 44.0487 26.3028C43.9232 25.3839 43.4714 24.7248 42.696 24.3296C42.1831 24.0682 40.3409 23.9539 39.4176 24.1261C38.2629 24.3417 37.5058 25.1369 37.3893 26.2567L37.3308 26.8173L36.3931 27.2102L35.4553 27.6031L35.1279 27.3301C34.5672 26.8624 34.1784 26.7149 33.5078 26.7152C33.0705 26.7154 32.7451 26.7832 32.4534 26.9347C31.8857 27.2297 30.1298 29.0067 29.9272 29.4914C29.5949 30.2864 29.8284 31.436 30.4542 32.0852L30.7095 32.35L30.3026 33.2872L29.8957 34.2243L29.3294 34.2805C28.6825 34.3446 28.2516 34.5467 27.8525 34.9728C27.2923 35.571 27.1961 35.901 27.1486 37.3861L27.1043 38.771H23.8398H20.5753L20.2671 39.0765C19.7498 39.5894 19.8925 40.4072 20.5582 40.7447C20.7175 40.8254 22.2001 40.8614 25.3574 40.8614H29.9263L30.3285 41.8049L30.7308 42.7483L30.4189 43.1004C29.7501 43.8554 29.5964 44.9412 30.0374 45.7944C30.3132 46.328 31.989 47.9364 32.5161 48.1734C33.171 48.468 33.9191 48.4498 34.5801 48.1234C34.8736 47.9784 35.1925 47.7733 35.2889 47.6678C35.4581 47.4824 35.4966 47.4888 36.3988 47.853L37.3333 48.2302L37.4466 48.9065C37.5936 49.7833 37.9749 50.325 38.7145 50.7081C39.2476 50.9841 39.3533 51 40.6511 51C41.4062 51 42.2047 50.9463 42.4257 50.8807C43.3175 50.6158 43.968 49.7715 44.0755 48.7394C44.1076 48.4307 44.1866 48.1774 44.251 48.1767C44.3153 48.1759 44.7459 48.0118 45.2078 47.812L46.0475 47.4486L46.3676 47.7558C47.0382 48.399 48.1697 48.5799 49.0074 48.1779C49.5577 47.9138 51.3256 46.137 51.537 45.6356C51.8793 44.8232 51.6738 43.7344 51.0593 43.1049L50.7494 42.7876L51.116 41.9552C51.3176 41.4973 51.4832 41.064 51.4839 40.9921C51.4847 40.9118 51.6328 40.8614 51.8683 40.8614C52.5451 40.8614 53.0961 40.6291 53.5969 40.1327C54.2211 39.5139 54.332 39.1074 54.332 37.4382C54.332 36.1516 54.316 36.0469 54.0375 35.5184C53.6346 34.7538 53.0669 34.3697 52.2182 34.2874L51.5677 34.2243L51.3261 33.5859C51.1931 33.2348 51.0098 32.8045 50.9186 32.6297C50.7679 32.341 50.7679 32.2993 50.918 32.1757C51.0089 32.1009 51.2207 31.8022 51.3887 31.5119C51.9467 30.5477 51.7757 29.4967 50.9054 28.5418L50.5456 28.1471L50.5139 16.396L50.4821 4.64484L50.194 3.80052C49.7072 2.37401 48.6727 1.06687 47.6022 0.525451C46.4974 -0.0332152 47.6087 -0.00718936 25.3405 0.00409894C13.827 0.0100566 4.54861 0.0554188 4.32803 0.106948ZM46.2479 2.25099C46.8888 2.46745 47.5736 3.13367 47.9617 3.91842L48.2693 4.54032L48.2998 9.21764L48.3302 13.895H25.387H2.44394L2.47757 9.32217C2.51037 4.84876 2.51638 4.73651 2.75077 4.15913C3.13973 3.20057 3.9184 2.44007 4.77509 2.18169C4.92038 2.1379 14.2001 2.09797 25.3966 2.09306C43.778 2.08491 45.8019 2.10027 46.2479 2.25099ZM9.3096 4.64923C8.65693 4.82723 7.7743 5.38297 7.4467 5.82227C6.85087 6.62113 6.72687 7.0043 6.72824 8.04178C6.7294 8.86436 6.77105 9.11793 6.97117 9.51929C7.36014 10.2995 7.88533 10.8247 8.64997 11.1978C9.26595 11.4984 9.45658 11.5407 10.2009 11.5419C10.912 11.543 11.1518 11.4957 11.682 11.2499C12.4978 10.8715 13.2334 10.102 13.5312 9.31569C13.8404 8.49896 13.7942 7.27355 13.4261 6.52894C12.6826 5.02488 10.9064 4.2138 9.3096 4.64923ZM18.5807 4.62477C16.7529 5.13682 15.6347 6.85442 15.965 8.64278C16.1842 9.83003 16.9027 10.7353 18.0484 11.2678C18.8858 11.6571 20.0684 11.655 20.9235 11.2628C21.6797 10.916 22.3281 10.2746 22.6847 9.52055C22.9181 9.0271 22.9639 8.7844 22.9639 8.04178C22.9639 7.28076 22.9217 7.06806 22.6693 6.55862C21.9271 5.06031 20.104 4.19801 18.5807 4.62477ZM31.2141 4.60157C29.0501 5.10714 27.821 7.48406 28.7024 9.45909C28.9924 10.1091 29.7969 10.9173 30.4897 11.2546L31.0827 11.5432H36.671C42.2575 11.5432 42.2595 11.5431 42.778 11.3061C43.5728 10.9428 44.135 10.4259 44.5256 9.69938C45.3849 8.10125 44.9047 6.1858 43.3838 5.14424C42.4627 4.51346 42.1842 4.48691 36.6225 4.49851C33.8656 4.50436 31.4319 4.55067 31.2141 4.60157ZM11.1205 6.96093C11.7685 7.54217 11.7926 8.48871 11.1737 9.05093C10.6872 9.49295 10.1813 9.58713 9.65828 9.33293C8.68013 8.85767 8.49856 7.67198 9.29452 6.9579C9.73578 6.56197 10.6777 6.56354 11.1205 6.96093ZM20.3806 6.98141C21.0135 7.44831 21.0442 8.45014 20.444 9.04518C19.9783 9.50675 19.4698 9.59256 18.8793 9.30921C18.318 9.03985 18.061 8.62814 18.061 7.99799C18.061 7.59955 18.1207 7.45155 18.4054 7.14363C18.9435 6.56155 19.7245 6.49738 20.3806 6.98141ZM42.1921 6.88149C42.8388 7.33867 43.0161 8.16637 42.5998 8.78409C42.1083 9.51354 42.1789 9.50476 36.816 9.50487C34.1701 9.50497 31.8516 9.47456 31.6637 9.43735C31.2053 9.34641 30.6531 8.78169 30.5644 8.31291C30.4764 7.84789 30.7916 7.07444 31.1458 6.88661C31.6627 6.61235 32.0821 6.59218 36.8819 6.6112L41.8375 6.63074L42.1921 6.88149ZM17.0391 22.0487C16.9121 22.0994 16.7319 22.2562 16.6387 22.3972C16.4419 22.6948 14.3588 31.2059 14.3362 31.8042C14.3236 32.1356 14.3811 32.2592 14.6638 32.5097C15.2711 33.0476 16.1121 32.8222 16.3642 32.0539C16.6084 31.3098 18.4955 23.3323 18.4996 23.0271C18.5054 22.5904 18.3309 22.2922 17.9577 22.1009C17.6145 21.925 17.3818 21.9117 17.0391 22.0487ZM9.98399 22.9136C9.53724 23.1691 6.57187 26.5828 6.44609 26.9862C6.23025 27.6788 6.42057 28.0129 8.10264 29.8924C8.94879 30.8378 9.73779 31.6937 9.85598 31.7942C9.98694 31.9056 10.2443 31.9771 10.5141 31.9771C11.1213 31.9771 11.5238 31.5728 11.5238 30.9631C11.5238 30.5631 11.4351 30.4362 10.1531 29.0023C9.39922 28.159 8.7824 27.4351 8.7824 27.3935C8.7824 27.3519 9.05528 27.0129 9.38868 26.6402C11.5947 24.1743 11.5238 24.2681 11.5238 23.8158C11.5238 23.0202 10.671 22.5206 9.98399 22.9136ZM21.6665 23.0394C21.2938 23.3504 21.1924 23.7623 21.3832 24.1903C21.4601 24.3628 22.0959 25.1388 22.796 25.9149C23.4962 26.691 24.0695 27.3557 24.07 27.392C24.0706 27.4284 23.4747 28.1221 22.7457 28.9337C21.1558 30.7039 20.996 31.0953 21.6139 31.7078C21.8195 31.9117 21.9911 31.9763 22.3193 31.9738C22.5579 31.972 22.8288 31.9132 22.9213 31.8431C23.3865 31.4911 26.3006 28.1193 26.4015 27.8163C26.6199 27.1601 26.4571 26.827 25.2519 25.4643C24.6321 24.7636 23.8145 23.8729 23.435 23.4848C22.8324 22.8686 22.6966 22.7793 22.3618 22.7793C22.1071 22.7793 21.8737 22.8666 21.6665 23.0394ZM41.8904 26.9862C41.8906 27.4982 41.9503 27.8627 42.075 28.1099C42.242 28.4414 42.3532 28.506 43.2609 28.7989C43.8119 28.9766 44.6531 29.3177 45.1302 29.5566C45.6073 29.7957 46.1067 29.9912 46.2401 29.9912C46.5411 29.9912 46.8607 29.7837 47.5055 29.1692L48.0071 28.6913L48.7971 29.4693C49.2317 29.8972 49.5873 30.2973 49.5873 30.3584C49.5873 30.4195 49.3506 30.7005 49.0612 30.983C48.7719 31.2656 48.4831 31.6532 48.4194 31.8446C48.3133 32.1634 48.3478 32.2819 48.8323 33.2607C49.1232 33.8482 49.4589 34.661 49.5782 35.0671C49.8913 36.1315 50.104 36.2963 51.254 36.3647L52.1705 36.4193L52.2008 37.449C52.2205 38.1186 52.1884 38.53 52.1089 38.6249C52.0234 38.727 51.7407 38.771 51.1701 38.771C50.0731 38.771 49.9134 38.9011 49.5369 40.1008C49.3786 40.6055 49.0356 41.4262 48.7748 41.9248C48.3388 42.7582 48.3099 42.86 48.4178 43.1842C48.4824 43.3781 48.7719 43.768 49.0612 44.0505C49.3506 44.333 49.5873 44.6141 49.5873 44.6751C49.5873 44.8163 48.0897 46.2965 47.9469 46.2965C47.8882 46.2965 47.5846 46.0397 47.2718 45.726C46.4838 44.9349 46.2991 44.9143 45.1762 45.4916C44.6737 45.75 43.849 46.0862 43.3435 46.2388C42.1346 46.6035 41.9957 46.7714 41.9957 47.8656C41.9957 48.4312 41.9513 48.7115 41.8483 48.7962C41.7525 48.875 41.3375 48.9069 40.6621 48.8873L39.6233 48.8573L39.5683 47.9487C39.4993 46.8106 39.3332 46.5994 38.2592 46.2843C37.8496 46.1641 37.0418 45.8311 36.4642 45.5441C35.4957 45.0631 35.3848 45.0311 35.0403 45.1334C34.8313 45.1955 34.4363 45.4762 34.144 45.7705C33.8564 46.0598 33.5708 46.2965 33.5092 46.2965C33.4475 46.2965 33.0495 45.9496 32.6246 45.5256C31.7704 44.6731 31.7519 44.5596 32.393 44.107C32.773 43.8388 33.1388 43.2705 33.1388 42.9485C33.1388 42.8165 32.9301 42.3047 32.6751 41.8111C32.42 41.3176 32.1059 40.5609 31.9771 40.1298C31.6355 38.9867 31.4505 38.8354 30.3164 38.771L29.3957 38.7188L29.3659 37.5429L29.336 36.367L30.104 36.3668C30.6241 36.3667 30.9907 36.3078 31.2402 36.1839C31.5756 36.0175 31.642 35.9031 31.9841 34.9037C32.1908 34.3001 32.5352 33.4817 32.7493 33.085C32.9636 32.6883 33.1388 32.2744 33.1388 32.1653C33.1388 31.8497 32.8771 31.4386 32.3564 30.9363C32.0908 30.68 31.8735 30.4225 31.8735 30.3641C31.8735 30.1906 33.2768 28.8415 33.4572 28.8415C33.5485 28.8415 33.8108 29.0335 34.04 29.2682C34.5221 29.7617 34.9179 29.9912 35.2868 29.9912C35.4301 29.9912 35.951 29.782 36.4442 29.5262C36.9375 29.2705 37.6885 28.9602 38.1131 28.8367C38.6389 28.6839 38.9777 28.515 39.1752 28.3072C39.4406 28.0279 39.4651 27.9327 39.4651 27.1849C39.4651 26.7355 39.4968 26.3364 39.5355 26.2982C39.5741 26.2598 40.1197 26.2285 40.748 26.2285H41.8902L41.8904 26.9862ZM39.1488 31.3051C37.3772 31.7642 35.7263 33.1003 34.9505 34.7027C34.4086 35.8222 34.2576 36.604 34.3212 37.9614C34.361 38.8127 34.432 39.1823 34.6672 39.764C35.4402 41.6756 36.7977 42.9717 38.7445 43.657C39.7351 44.0055 41.4646 44.0482 42.4702 43.7486C44.667 43.0943 46.3645 41.4107 47.015 39.2414C47.2992 38.2934 47.2787 36.7352 46.9689 35.7399C46.2944 33.5727 44.423 31.7977 42.2861 31.2982C41.4577 31.1046 39.9091 31.1079 39.1488 31.3051ZM42.5701 33.6316C45.2804 34.8889 45.9402 38.3407 43.8824 40.4976C41.7921 42.6886 38.2146 42.1442 36.861 39.4292C36.5335 38.7724 36.4673 38.5211 36.4285 37.7882C36.3717 36.7146 36.5632 36.0014 37.1366 35.1523C37.6559 34.3831 38.4497 33.7779 39.3498 33.4649C40.3553 33.1153 41.5954 33.1794 42.5701 33.6316ZM15.7296 38.9278C15.118 39.2572 15.0847 40.1243 15.6649 40.6083C15.9397 40.8374 16.0658 40.8739 16.4215 40.8266C17.0024 40.7493 17.323 40.3728 17.323 39.7674C17.323 39.3874 17.2694 39.2675 16.9985 39.0416C16.6331 38.7367 16.1625 38.6945 15.7296 38.9278Z" fill="#0AD4A5"/>
</svg>
