<svg width="46" height="55" viewBox="0 0 46 55" fill="none" xmlns="http://www.w3.org/2000/svg">
<path fill-rule="evenodd" clip-rule="evenodd" d="M5.71941 0.0593863C3.54639 0.394664 1.67924 2.04127 0.964545 4.25265C0.645712 5.23931 0.664264 3.8004 0.664264 27.5119C0.664264 46.449 0.67526 49.4221 0.747046 49.8549C1.14426 52.2507 2.81089 54.1609 5.09094 54.8336L5.65484 55H17.1867C28.2136 55 28.7382 54.9952 29.1642 54.8897C31.5334 54.3032 33.2883 52.3898 33.7342 49.9067C33.8059 49.5072 33.822 48.9013 33.822 46.5951V43.7724H32.6378H31.4536L31.4533 45.9912C31.453 47.6588 31.4319 48.3578 31.3682 48.8055C31.204 49.9609 30.9007 50.6702 30.2979 51.3085C29.6889 51.9534 28.8807 52.3183 27.7333 52.4664C27.0748 52.5515 7.41147 52.5515 6.753 52.4664C4.76635 52.2099 3.64079 51.2228 3.18944 49.3416L3.06087 48.8055V27.5119V6.21822L3.18989 5.68216C3.53754 4.23788 4.274 3.31925 5.44372 2.8708C6.40247 2.50318 5.64751 2.52534 17.2149 2.52534C28.5643 2.52534 28.0449 2.51182 28.9335 2.82988C29.5032 3.03382 29.9157 3.30424 30.3258 3.7425C31.1311 4.60306 31.4531 5.77347 31.4534 7.8413L31.4536 8.74963H32.6428H33.832L33.8083 6.97764C33.7823 5.03251 33.7513 4.81016 33.3731 3.85055C32.5787 1.83501 30.7675 0.356127 28.7287 0.0583739C28.1914 -0.0201297 6.22834 -0.0191172 5.71941 0.0593863ZM5.40108 13.7529V15.0037H11.9142H18.4273V13.7529V12.5021H11.9142H5.40108V13.7529ZM31.4536 13.7815C31.4536 15.2481 31.5406 15.0603 30.8051 15.1819C30.1729 15.2865 29.4144 15.5165 28.7323 15.8104C27.9306 16.156 27.4108 16.4539 26.6449 17.007C26.3107 17.2483 26.0185 17.4458 25.9957 17.4458C25.9728 17.4458 25.5741 17.0437 25.1096 16.5523L24.2652 15.6589L23.4327 16.5367L22.6002 17.4146L23.4461 18.3094C23.9113 18.8016 24.292 19.2206 24.292 19.2406C24.292 19.2605 24.0789 19.6139 23.8186 20.0257C22.8853 21.5017 22.341 22.98 22.0653 24.7869L22.0312 25.0102H20.8214H19.6115V26.261V27.5119H20.8214H22.0312L22.0661 27.7352C22.3736 29.7091 22.9986 31.3358 24.0201 32.8213C24.1696 33.0388 24.292 33.2395 24.292 33.2673C24.292 33.2951 23.9113 33.7205 23.4461 34.2127L22.6002 35.1075L23.4327 35.9854L24.2651 36.8632L25.1324 35.9457L25.9996 35.0283L26.4005 35.3403C26.8913 35.7224 27.7546 36.2619 28.275 36.5117C29.0206 36.8697 30.3 37.2766 30.9743 37.3701C31.501 37.4433 31.4536 37.3073 31.4536 38.7434V40.02H32.6378H33.822V38.7421V37.4642L34.0335 37.4261C35.9727 37.0761 37.3681 36.4863 38.7657 35.4258C39.0191 35.2336 39.2471 35.0763 39.2726 35.0763C39.298 35.0763 39.7039 35.4825 40.1746 35.9789L41.0304 36.8814L41.8582 36L42.686 35.1187L41.8211 34.2038C41.152 33.4959 40.969 33.2697 41.0123 33.2041C41.8843 31.8818 42.268 31.1566 42.6217 30.162C42.8471 29.5281 43.1389 28.3544 43.2102 27.7948L43.2462 27.5119H44.4551H45.6641V26.261V25.0102H44.4567H43.2495L43.1842 24.5784C42.9076 22.7486 42.2087 21.0547 41.0123 19.3145C40.9697 19.2526 41.1626 19.0149 41.8193 18.3202L42.6822 17.4073L41.8486 16.5321L41.015 15.657L40.1532 16.5658C39.4892 17.2661 39.2732 17.4611 39.2119 17.4155C37.5236 16.1603 36.1136 15.4813 34.6397 15.2139C34.3295 15.1576 34.0186 15.1002 33.9489 15.0863L33.822 15.061V13.7815V12.5021H32.6378H31.4536V13.7815ZM34.2821 17.6819C37.5885 18.4196 40.0311 20.993 40.7708 24.5183C40.8727 25.004 40.8928 25.2905 40.8932 26.261C40.8936 27.3247 40.8804 27.4825 40.7358 28.1349C40.5489 28.9783 40.3699 29.5237 40.0801 30.1326C37.9871 34.5312 32.9909 36.2634 28.8501 34.0262C26.6091 32.8154 25.0048 30.5575 24.5078 27.9147C24.345 27.0485 24.3333 25.5701 24.4827 24.7164C24.6894 23.5346 25.1961 22.2381 25.8292 21.2707C26.2103 20.6884 27.0694 19.7385 27.5869 19.3271C28.7645 18.3909 30.179 17.7702 31.5946 17.5683C32.2136 17.48 33.6493 17.5407 34.2821 17.6819ZM5.40108 23.7594V25.0102H10.73H16.0589V23.7594V22.5086H10.73H5.40108V23.7594ZM5.40108 33.7659V35.0167H10.1379H14.8747V33.7659V32.5151H10.1379H5.40108V33.7659ZM16.6228 42.6133C15.2647 43.0139 14.5463 44.5279 15.0455 45.9373C15.4669 47.1271 16.7649 47.7891 17.928 47.4073C18.6316 47.1763 19.2434 46.5593 19.4802 45.8421C19.6295 45.3896 19.6157 44.5657 19.4515 44.1298C19.1989 43.4599 18.7132 42.9485 18.089 42.6954C17.6803 42.5297 17.0295 42.4933 16.6228 42.6133Z" fill="#0AD4A5"/>
</svg>
